<?xml version="1.0" encoding="UTF-8"?>
<svg id="Layer_2" data-name="Layer 2" xmlns="http://www.w3.org/2000/svg" viewBox="0 0 335.74 199.09">
  <defs>
    <style>
      .cls-1 {
        fill: #ee6c4d;
      }

      .cls-2 {
        fill: none;
      }
    </style>
  </defs>
  <g id="Layer_1-2" data-name="Layer 1">
    <path class="cls-2" d="m265.23,70.55c.75-.35,1.48-.7,2.21-1.05-.73.35-1.46.7-2.21,1.05h0Z"/>
    <path class="cls-2" d="m285.12,59.91c7.05-4.44,11.9-8.63,14.06-12.52-2.16,3.88-7.02,8.08-14.06,12.52Z"/>
    <path class="cls-2" d="m75.19,129.68c-3.3-10.39-4.81-20.94-4.69-31.3.02-1.78.09-3.55.21-5.31,0,0,0,0,0,0-.12,1.76-.18,3.53-.2,5.31-.12,10.36,1.39,20.9,4.69,31.3.17.53.34,1.07.52,1.6.31.91.63,1.81.96,2.71-14.21,3-25.77,4.41-33.77,3.71,8,.7,19.56-.71,33.77-3.71-.33-.9-.65-1.8-.96-2.71-.18-.53-.35-1.07-.52-1.6Z"/>
    <path class="cls-2" d="m300.1,40.86c-2.08-6.18-12.69-8.99-29.11-8.74-1.49.02-3.03.07-4.62.14-6.35.29-13.43.99-21.13,2.07,1.16,1.34,2.28,2.7,3.37,4.1,6.36,8.18,11.53,17.49,15.18,27.77.19.53.38,1.05.56,1.59.31.91.59,1.82.87,2.74.75-.35,1.48-.7,2.21-1.05,6.85-3.3,12.79-6.5,17.68-9.58,7.05-4.44,11.9-8.63,14.06-12.52,1.27-2.29,1.61-4.47.92-6.53Z"/>
    <path class="cls-2" d="m76.67,133.99c-.33-.9-.65-1.8-.96-2.71-.18-.53-.35-1.07-.52-1.6-3.3-10.39-4.81-20.94-4.69-31.3.02-1.78.09-3.55.2-5.31-27.13,15.15-42.79,29.37-39.76,38.35,1.25,3.71,5.41,5.7,11.95,6.27,8,.7,19.56-.71,33.77-3.71Z"/>
    <path class="cls-1" d="m94.48,164.35c25.62,29.85,67.71,42.83,107.28,29.52,39.58-13.32,65.26-49.1,67.63-88.36-24.72,12.97-53.04,27.88-84.34,38.41-31.31,10.53-63.03,15.83-90.57,20.44Z"/>
    <path class="cls-1" d="m335.08,36.85c-5.49-16.32-44.11-19.17-96.89-9.85-1.41-1.32-2.85-2.59-4.32-3.83C208.18,1.76,172.31-6.22,138.3,5.22c-34.02,11.45-57.77,39.48-65.27,72.07-.43,1.87-.81,3.76-1.13,5.66C24.21,107.43-4.83,133.05.66,149.37c5.26,15.65,41.02,18.91,90.52,10.92,11.74-1.89,24.36-4.18,37.55-7.05.45-5.59.9-10.49,1.17-16.23.12-2.67,1.2-3.92,3.67-4.78,3.05-1.06,6.09-2.14,9.13-3.21,1.07-25.28,2.26-50.56,3.17-75.85-4.24,1.5-8.49,3.01-12.73,4.5-1.4.49-2.85.87-4.68,1.42.51-7.21,1.21-13.91,1.38-20.62.09-3.64,1.46-5.38,4.88-6.56,18.54-6.41,37-13.04,55.5-19.58.93-.33,1.91-.51,3.31-.88-.54,7.58-1.17,14.77-1.5,21.97-.12,2.67-1.2,3.92-3.67,4.78-3.38,1.18-6.76,2.38-10.13,3.56-1.05,25.08-2.17,50.17-3.12,75.25,0,.21-.03.4-.05.6,4.58-1.62,9.16-3.24,13.74-4.86,1.4-.49,2.85-.87,4.68-1.42-.51,7.21-1.21,13.91-1.38,20.62-.04,1.5-.31,2.67-.84,3.62,29.55-10.56,55.94-23.39,78.32-35.3,44.26-23.56,70.77-47.77,65.51-63.42ZM42.9,137.7c-6.55-.58-10.71-2.57-11.95-6.27-3.02-8.99,12.63-23.21,39.76-38.35,0,0,0,0,0,0,0,0,0,0,0,0-.12,1.76-.18,3.53-.21,5.31-.12,10.36,1.39,20.9,4.69,31.3.17.53.34,1.07.52,1.6.31.91.63,1.81.96,2.71-14.21,3-25.77,4.41-33.77,3.71Zm242.22-77.79c-4.89,3.08-10.83,6.28-17.68,9.58-.73.35-1.46.7-2.21,1.05h0c-.28-.91-.57-1.83-.87-2.74-.18-.53-.37-1.06-.56-1.59-3.65-10.28-8.82-19.59-15.18-27.77-1.09-1.4-2.22-2.77-3.37-4.1,7.69-1.08,14.78-1.78,21.13-2.07,1.59-.07,3.13-.12,4.62-.14,16.43-.25,27.03,2.56,29.11,8.73.69,2.06.35,4.24-.92,6.53-2.16,3.88-7.02,8.08-14.06,12.52Z"/>
  </g>
</svg>