<?xml version="1.0" encoding="UTF-8"?>
<svg id="Capa_1" data-name="Capa 1" xmlns="http://www.w3.org/2000/svg" viewBox="0 0 800 800">
  <path d="m749.88,50.13c-19.03-19.03-48.29-22.07-86.83-8.79-16.95,5.76-36.14,14.71-57.72,26.86-12.95,7.36-26.86,15.67-41.25,25.26-3.84,2.56-7.68,5.12-11.67,7.84,22.07,11.19,42.69,24.78,61.72,40.78,4.48-2.72,8.63-5.44,12.79-7.84,36.46-21.75,59.32-30.06,71.32-32.46-3.2,16.15-17.11,52.45-60.6,115.13-3.52,4.96-7.04,10.07-10.71,15.19-8.16-11.03-17.27-21.75-27.34-31.66-110.17-110.17-288.94-110.17-399.12,0-110.17,110.17-110.17,288.94,0,399.12,10.07,10.07,20.63,19.19,31.66,27.34-5.12,3.68-10.23,7.2-15.19,10.71-62.68,43.33-98.98,57.4-115.13,60.6,1.92-9.75,7.84-27.18,22.07-53.41,4.96-9.11,10.87-19.35,18.07-30.7-15.83-19.03-29.42-39.66-40.78-61.72-2.72,3.84-5.28,7.84-7.84,11.67-13.27,20.15-24.31,38.86-33.1,55.97-8.16,15.67-14.39,30.06-18.87,43.01-13.11,38.54-10.23,67.8,8.79,86.83,19.03,19.03,48.29,22.07,86.83,8.79,27.18-9.27,60.44-26.86,98.98-52.13,76.11-50.05,166.94-126.32,255.52-214.91,88.59-88.59,165.02-179.41,214.91-255.52,25.26-38.54,42.85-71.8,52.13-98.98,13.27-38.7,10.39-67.8-8.63-86.99ZM199.34,426.86c-14.87,0-26.86-11.99-26.86-26.86,0-61.08,23.83-118.65,67-161.82,10.55-10.55,27.5-10.55,38.06,0,10.55,10.55,10.55,27.5,0,38.06-33.1,33.1-51.33,77.07-51.33,123.76.16,14.87-11.99,26.86-26.86,26.86Z"/>
  <path d="m529.22,529.2c-55.97,55.97-112.89,107.13-166.78,150.47,84.11,11.19,172.53-15.51,237.13-80.11,64.76-64.76,91.46-153.03,80.11-237.13-43.33,53.89-94.5,110.81-150.47,166.78Z"/>
</svg>